<svg xmlns="http://www.w3.org/2000/svg" width="50" height="50"><g fill="#a16241"><rect width="10" height="10"/><rect width="10" height="10" fill="#76b7d3" x="10"/><rect width="10" height="10" fill="#71b9e9" x="20"/><rect width="10" height="10" fill="#75b9d0" x="30"/><rect width="10" height="10" fill="#6eb4ce" x="40"/><rect width="10" height="10" fill="#cc7351" y="10"/><rect width="10" height="10" fill="#f5ffff" x="10" y="10"/><rect width="10" height="10" fill="#feffff" x="20" y="10"/><rect width="10" height="10" fill="#fffbff" x="30" y="10"/><rect width="10" height="10" fill="#fdfbff" x="40" y="10"/><rect width="10" height="10" fill="#f9ac90" y="20"/><rect width="10" height="10" fill="#e7ffff" x="10" y="20"/><rect width="10" height="10" fill="#f7fdff" x="20" y="20"/><rect width="10" height="10" fill="#fbf7f8" x="30" y="20"/><rect width="10" height="10" fill="#474751" x="40" y="20"/><rect width="10" height="10" fill="#d2afa9" y="30"/><rect width="10" height="10" fill="#eef8f7" x="10" y="30"/><rect width="10" height="10" fill="#fbf8ff" x="20" y="30"/><rect width="10" height="10" fill="#f5fafd" x="30" y="30"/><rect width="10" height="10" fill="#0e121e" x="40" y="30"/><rect width="10" height="10" fill="#020006" y="40"/><rect width="10" height="10" fill="#f1fbfc" x="10" y="40"/><rect width="10" height="10" fill="#f6f5fd" x="20" y="40"/><rect width="10" height="10" fill="#fcffff" x="30" y="40"/><rect width="10" height="10" fill="#090b18" x="40" y="40"/></g></svg>