<svg xmlns="http://www.w3.org/2000/svg" width="50" height="50"><g fill="#f4f5fa"><rect width="10" height="10"/><rect width="10" height="10" fill="#f3f4f8" x="10"/><rect width="10" height="10" fill="#f8faf7" x="20"/><rect width="10" height="10" fill="#dddee0" x="30"/><rect width="10" height="10" fill="#f5f9f8" x="40"/><rect width="10" height="10" fill="#f3f3f5" y="10"/><rect width="10" height="10" fill="#fafbff" x="10" y="10"/><rect width="10" height="10" fill="#fbf7f8" x="20" y="10"/><rect width="10" height="10" fill="#dfe0e2" x="30" y="10"/><rect width="10" height="10" fill="#f3f8f4" x="40" y="10"/><rect width="10" height="10" fill="#f4f2f3" y="20"/><rect width="10" height="10" fill="#f8f9fd" x="10" y="20"/><rect width="10" height="10" fill="#fbf5f7" x="20" y="20"/><rect width="10" height="10" fill="#e0e1e3" x="30" y="20"/><rect width="10" height="10" fill="#fffffb" x="40" y="20"/><rect width="10" height="10" fill="#eeecf1" y="30"/><rect width="10" height="10" fill="#524f5a" x="10" y="30"/><rect width="10" height="10" fill="#fcfafb" x="20" y="30"/><rect width="10" height="10" fill="#e9e8e3" x="30" y="30"/><rect width="10" height="10" fill="#f6f6f6" x="40" y="30"/><rect width="10" height="10" fill="#242f35" y="40"/><rect width="10" height="10" fill="#3c454a" x="10" y="40"/><rect width="10" height="10" fill="#e9fff0" x="20" y="40"/><rect width="10" height="10" fill="#e4e5e9" x="30" y="40"/><rect width="10" height="10" fill="#f7faff" x="40" y="40"/></g></svg>