<svg xmlns="http://www.w3.org/2000/svg" width="50" height="50"><g fill="#f7fbfe"><rect width="10" height="10"/><rect width="10" height="10" x="10"/><rect width="10" height="10" fill="#f7faff" x="20"/><rect width="10" height="10" fill="#f5f9ff" x="30"/><rect width="10" height="10" fill="#e2d7d3" x="40"/><rect width="10" height="10" fill="#fcfcfe" y="10"/><rect width="10" height="10" fill="#f7fbfc" x="10" y="10"/><rect width="10" height="10" fill="#f6fbfe" x="20" y="10"/><rect width="10" height="10" fill="#baa89e" x="30" y="10"/><rect width="10" height="10" fill="#eebb9e" x="40" y="10"/><rect width="10" height="10" fill="#cac8c9" y="20"/><rect width="10" height="10" fill="#f8fcfd" x="10" y="20"/><rect width="10" height="10" fill="#f7fdfd" x="20" y="20"/><rect width="10" height="10" fill="#fff6f0" x="30" y="20"/><rect width="10" height="10" fill="#eab595" x="40" y="20"/><rect width="10" height="10" fill="#cdb6ae" y="30"/><rect width="10" height="10" fill="#fafafc" x="10" y="30"/><rect width="10" height="10" fill="#e7e9e6" x="20" y="30"/><rect width="10" height="10" fill="#d5d5d7" x="30" y="30"/><rect width="10" height="10" fill="#b67e7f" x="40" y="30"/><rect width="10" height="10" fill="#f5f7f4" y="40"/><rect width="10" height="10" fill="#f7f6ff" x="10" y="40"/><rect width="10" height="10" fill="#c5cecd" x="20" y="40"/><rect width="10" height="10" fill="#bdd0d7" x="30" y="40"/><rect width="10" height="10" fill="#c0becb" x="40" y="40"/></g></svg>