<svg xmlns="http://www.w3.org/2000/svg" width="50" height="50"><g fill="#d9e4e6"><rect width="10" height="10"/><rect width="10" height="10" fill="#dee9eb" x="10"/><rect width="10" height="10" fill="#dee3e9" x="20"/><rect width="10" height="10" fill="#96a2a2" x="30"/><rect width="10" height="10" fill="#8fa09a" x="40"/><rect width="10" height="10" fill="#d6dadb" y="10"/><rect width="10" height="10" fill="#e0e9e8" x="10" y="10"/><rect width="10" height="10" fill="#dde6ed" x="20" y="10"/><rect width="10" height="10" fill="#64767a" x="30" y="10"/><rect width="10" height="10" fill="#5b7071" x="40" y="10"/><rect width="10" height="10" fill="#cec0bf" y="20"/><rect width="10" height="10" fill="#e5ddda" x="10" y="20"/><rect width="10" height="10" fill="#d7edeb" x="20" y="20"/><rect width="10" height="10" fill="#799598" x="30" y="20"/><rect width="10" height="10" fill="#4f676b" x="40" y="20"/><rect width="10" height="10" fill="#d4a48e" y="30"/><rect width="10" height="10" fill="#dad1d4" x="10" y="30"/><rect width="10" height="10" fill="#deecf7" x="20" y="30"/><rect width="10" height="10" fill="#a9b4ba" x="30" y="30"/><rect width="10" height="10" fill="#698586" x="40" y="30"/><rect width="10" height="10" fill="#848693" y="40"/><rect width="10" height="10" fill="#a2999c" x="10" y="40"/><rect width="10" height="10" fill="#e0e7ed" x="20" y="40"/><rect width="10" height="10" fill="#afc1c5" x="30" y="40"/><rect width="10" height="10" fill="#e2edf3" x="40" y="40"/></g></svg>